HIERARCHY
ROOT Hips
{
	OFFSET 0.000000 0.000000 0.000000
	CHANNELS 6 Xposition Yposition Zposition Xrotation Yrotation Zrotation
	JOINT LeftUpLeg_virtual
	{
		OFFSET 0.000000 0.000000 0.000000
		CHANNELS 3 Xrotation Yrotation Zrotation
		JOINT LeftUpLeg
		{
			OFFSET 11.394100 -6.187798 -0.413800
			CHANNELS 3 Xrotation Yrotation Zrotation
			JOINT LeftLeg
			{
				OFFSET 0.430247 -32.302673 3.732800
				CHANNELS 3 Xrotation Yrotation Zrotation
				JOINT LeftFoot
				{
					OFFSET -0.430247 -48.264931 -6.423300
					CHANNELS 3 Xrotation Yrotation Zrotation
					JOINT LeftToeBase
					{
						OFFSET 4.230900 -16.068199 23.438400
						CHANNELS 3 Xrotation Yrotation Zrotation
						JOINT LeftToe_End
						{
							OFFSET 4.510700 0.695400 19.974600
							CHANNELS 3 Xrotation Yrotation Zrotation
							End Site
							{
								OFFSET 0 0 0
							}
						}
					}
				}
			}
		}
	}
	JOINT RightUpLeg_virtual
	{
		OFFSET 0.000000 0.000000 0.000000
		CHANNELS 3 Xrotation Yrotation Zrotation
		JOINT RightUpLeg
		{
			OFFSET -11.333700 -6.187798 -0.413800
			CHANNELS 3 Xrotation Yrotation Zrotation
			JOINT RightLeg
			{
				OFFSET -0.430392 -32.302628 3.733000
				CHANNELS 3 Xrotation Yrotation Zrotation
				JOINT RightFoot
				{
					OFFSET 0.430392 -48.264973 -6.423500
					CHANNELS 3 Xrotation Yrotation Zrotation
					JOINT RightToeBase
					{
						OFFSET -4.230900 -16.068199 23.438400
						CHANNELS 3 Xrotation Yrotation Zrotation
						JOINT RightToe_End
						{
							OFFSET -4.510700 0.695400 19.974600
							CHANNELS 3 Xrotation Yrotation Zrotation
							End Site
							{
								OFFSET 0 0 0
							}
						}
					}
				}
			}
		}
	}
	JOINT Spine_virtual
	{
		OFFSET 0.000000 0.000000 0.000000
		CHANNELS 3 Xrotation Yrotation Zrotation
		JOINT Spine
		{
			OFFSET -0.002400 12.777504 0.315300
			CHANNELS 3 Xrotation Yrotation Zrotation
			JOINT Spine1
			{
				OFFSET -0.002067 5.816869 0.032633
				CHANNELS 3 Xrotation Yrotation Zrotation
				JOINT Spine1_split
				{
					OFFSET -0.002067 5.816869 0.032633
					CHANNELS 3 Xrotation Yrotation Zrotation
					JOINT Spine2
					{
						OFFSET -0.002067 5.816869 0.032633
						CHANNELS 3 Xrotation Yrotation Zrotation
						JOINT Neck_virtual
						{
							OFFSET 0.000000 0.000000 0.000000
							CHANNELS 3 Xrotation Yrotation Zrotation
							JOINT Neck
							{
								OFFSET -0.003700 21.199493 -0.826900
								CHANNELS 3 Xrotation Yrotation Zrotation
								JOINT Head
								{
									OFFSET 0.000000 20.442200 4.834800
									CHANNELS 3 Xrotation Yrotation Zrotation
									JOINT HeadTop_End
									{
										OFFSET 0.000000 34.668396 4.968400
										CHANNELS 3 Xrotation Yrotation Zrotation
										End Site
										{
											OFFSET 0 0 0
										}
									}
								}
							}
						}
						JOINT LeftShoulder_virtual
						{
							OFFSET 0.000000 0.000000 0.000000
							CHANNELS 3 Xrotation Yrotation Zrotation
							JOINT LeftShoulder
							{
								OFFSET 3.288150 8.794197 -1.372250
								CHANNELS 3 Xrotation Yrotation Zrotation
								JOINT LeftShoulder_split
								{
									OFFSET 3.288150 8.794197 -1.372250
									CHANNELS 3 Xrotation Yrotation Zrotation
									JOINT LeftArm
									{
										OFFSET 11.953299 -2.279007 -0.146200
										CHANNELS 3 Xrotation Yrotation Zrotation
										JOINT LeftForeArm
										{
											OFFSET 18.448900 0.000000 0.000000
											CHANNELS 3 Xrotation Yrotation Zrotation
											JOINT LeftHand
											{
												OFFSET 29.527798 0.000000 0.000000
												CHANNELS 3 Xrotation Yrotation Zrotation
												End Site
												{
													OFFSET 0 0 0
												}
											}
										}
									}
								}
							}
						}
						JOINT RightShoulder_virtual
						{
							OFFSET 0.000000 0.000000 0.000000
							CHANNELS 3 Xrotation Yrotation Zrotation
							JOINT RightShoulder
							{
								OFFSET -3.249400 8.794197 -1.372250
								CHANNELS 3 Xrotation Yrotation Zrotation
								JOINT RightShoulder_split
								{
									OFFSET -3.249400 8.794197 -1.372250
									CHANNELS 3 Xrotation Yrotation Zrotation
									JOINT RightArm
									{
										OFFSET -11.953299 -2.279007 -0.146200
										CHANNELS 3 Xrotation Yrotation Zrotation
										JOINT RightForeArm
										{
											OFFSET -18.448900 0.000000 0.000000
											CHANNELS 3 Xrotation Yrotation Zrotation
											JOINT RightHand
											{
												OFFSET -29.527802 0.000000 0.000000
												CHANNELS 3 Xrotation Yrotation Zrotation
												End Site
												{
													OFFSET 0 0 0
												}
											}
										}
									}
								}
							}
						}
					}
				}
			}
		}
	}
}
MOTION
Frames: 7
Frame Time: 0.03333333
-0.957178 91.816818 44.218166 0.000000 0.000000 0.000000 9.573612 -4.922303 0.248572 -37.149317 5.451952 17.275160 40.218732 8.987561 0.911555 -10.923831 -3.728824 -12.830305 1.307221 -0.483362 1.430197 0.000000 0.000000 0.000000 9.773661 -4.570001 0.512312 -42.370740 -2.137699 -5.577574 40.520528 0.478144 -5.712048 -9.768041 -9.410423 7.808778 2.840489 -0.022558 -1.292257 0.000000 0.000000 0.000000 9.706672 -4.658168 0.079196 6.456258 -0.160568 -0.624923 1.820865 -0.346425 0.411887 1.070181 1.531409 -0.053498 0.000000 0.000000 0.000000 1.666205 -0.809917 0.357100 12.543409 -0.410484 0.691238 -30.045056 0.811020 -4.967967 0.000000 0.000000 0.000000 1.600336 -0.705162 0.668714 5.920083 -9.325665 19.320061 -1.305173 -4.242593 -0.067591 -33.176414 -15.155860 -13.805853 178.398886 -58.107684 179.818582 0.000000 0.000000 0.000000 0.881379 -0.750436 0.569344 -0.843169 -8.235772 -16.466341 0.509692 -0.392576 1.986077 -38.521369 35.541350 31.304113 179.116506 52.041718 -179.666364 0.000000 0.000000 0.000000 
-1.064781 94.102020 45.180725 0.000000 0.000000 0.000000 9.788167 -4.748015 0.474992 -33.756707 6.597105 16.601325 34.558387 9.260887 1.070610 -9.670795 -3.729590 -12.342066 1.785864 -0.326838 0.914844 0.000000 0.000000 0.000000 10.100139 -4.177767 0.621598 -38.668638 -2.501645 -5.506444 34.649225 0.351181 -5.676752 -7.346356 -9.383658 7.899208 2.081024 -0.125340 -1.156041 0.000000 0.000000 0.000000 10.044328 -4.417299 0.251418 6.203205 -0.278024 -0.600701 0.963696 -0.372195 0.269761 1.174450 1.466854 0.064920 0.000000 0.000000 0.000000 0.665286 -0.832688 0.230896 12.299631 -0.374190 0.884524 -29.033918 0.724317 -4.746681 0.000000 0.000000 0.000000 0.550612 -0.752874 0.488782 5.938893 -9.367020 19.110475 -1.535350 -3.998690 -0.077853 -32.606415 -15.626732 -14.144933 178.643598 -58.297461 -179.982042 0.000000 0.000000 0.000000 -0.177282 -0.755749 0.469695 -0.950543 -8.175491 -16.494424 0.717608 -0.758290 2.075812 -37.021189 36.330719 30.603308 179.023793 52.217910 -179.332122 0.000000 0.000000 0.000000 
-1.153515 96.138870 46.002155 0.000000 0.000000 0.000000 9.996474 -4.547578 0.678128 -30.605610 7.621293 15.891436 29.211223 9.432582 1.264761 -8.326696 -3.904575 -12.019320 2.149938 -0.145716 0.534854 0.000000 0.000000 0.000000 10.385136 -3.778702 0.714965 -35.308506 -2.702725 -5.469615 29.387090 0.156159 -5.603351 -5.054679 -9.345947 7.955301 1.582488 -0.228961 -1.039047 0.000000 0.000000 0.000000 10.335194 -4.066892 0.413292 6.010510 -0.386332 -0.607093 0.195287 -0.427170 0.183678 1.217950 1.382218 0.163793 0.000000 0.000000 0.000000 -0.178906 -0.879256 0.170591 11.867967 -0.338189 0.966047 -28.050634 0.695225 -4.562424 0.000000 0.000000 0.000000 -0.371498 -0.801978 0.361994 5.850108 -9.058768 18.901256 -1.659149 -3.909967 -0.049382 -31.703754 -16.903287 -14.398126 178.884854 -58.700408 -179.800864 0.000000 0.000000 0.000000 -1.092855 -0.785099 0.402252 -1.097255 -8.200253 -16.400978 0.781848 -1.177434 2.106885 -35.472396 37.195947 30.113344 178.920207 52.474967 -178.957500 0.000000 0.000000 0.000000 
-1.202785 97.713470 46.584625 0.000000 0.000000 0.000000 10.123998 -4.358467 0.821982 -28.042054 8.438521 15.272011 24.714368 9.498122 1.434007 -6.906323 -4.241420 -11.911002 2.356166 0.043105 0.315225 0.000000 0.000000 0.000000 10.605273 -3.438067 0.780421 -32.597406 -2.769436 -5.482591 25.055340 -0.068671 -5.519810 -3.188247 -9.263955 7.933692 1.595438 -0.321073 -0.973902 0.000000 0.000000 0.000000 10.550766 -3.720536 0.534930 5.890487 -0.461656 -0.620959 -0.414645 -0.495387 0.156398 1.220337 1.332815 0.169336 0.000000 0.000000 0.000000 -0.802698 -0.945715 0.180637 11.380651 -0.309606 0.973812 -27.083464 0.743416 -4.450902 0.000000 0.000000 0.000000 -1.111278 -0.849526 0.307905 5.677794 -8.388328 18.719013 -1.742613 -3.861494 0.011852 -30.688183 -18.785658 -14.599758 179.144046 -58.848241 -179.570577 0.000000 0.000000 0.000000 -1.777636 -0.826525 0.373992 -1.268485 -8.316660 -16.204245 0.658755 -1.374475 2.114446 -34.128171 37.856856 29.923284 178.841919 52.678845 -178.646057 0.000000 0.000000 0.000000 
-1.228626 98.760986 46.945442 0.000000 0.000000 0.000000 10.198570 -4.257070 0.903573 -26.242567 8.986924 14.824451 21.400880 9.497580 1.533450 -5.450461 -4.700215 -11.969124 2.561042 0.223172 0.216877 0.000000 0.000000 0.000000 10.767970 -3.226529 0.805377 -30.685086 -2.714883 -5.537640 21.915485 -0.289332 -5.426320 -1.841460 -9.163298 7.817309 1.930626 -0.395681 -0.954502 0.000000 0.000000 0.000000 10.678267 -3.418717 0.613001 5.840294 -0.490758 -0.617356 -0.851660 -0.566140 0.166628 1.219644 1.334709 0.101599 0.000000 0.000000 0.000000 -1.205964 -1.017564 0.241272 10.978780 -0.260198 0.948480 -26.103267 0.860769 -4.426871 0.000000 0.000000 0.000000 -1.662991 -0.881667 0.309475 5.439924 -7.377041 18.471465 -1.654462 -4.028546 0.097132 -29.566072 -20.969789 -14.880243 179.393908 -58.394088 -179.329294 0.000000 0.000000 0.000000 -2.203246 -0.871807 0.361064 -1.433567 -8.495838 -15.964094 0.295468 -1.315501 2.201279 -32.942901 38.037231 29.995288 178.839747 52.690419 -178.492651 0.000000 0.000000 0.000000 
-1.250248 99.330276 47.069099 0.000000 0.000000 0.000000 10.226033 -4.255205 0.938251 -25.247516 9.288063 14.574932 19.328619 9.535348 1.534694 -4.135404 -5.173309 -12.021267 2.920210 0.385951 0.144969 0.000000 0.000000 0.000000 10.879668 -3.077054 0.811828 -29.532276 -2.611866 -5.627523 19.918053 -0.517173 -5.328193 -0.958454 -9.073516 7.625778 2.273218 -0.463822 -0.978961 0.000000 0.000000 0.000000 10.710769 -3.157537 0.648545 5.844338 -0.471934 -0.585453 -1.138034 -0.629186 0.185270 1.155616 1.280447 -0.002237 0.000000 0.000000 0.000000 -1.454088 -1.086019 0.308807 10.773483 -0.188907 0.912375 -25.042194 0.996471 -4.504485 0.000000 0.000000 0.000000 -2.055851 -0.899652 0.333279 5.183099 -6.176780 18.035205 -1.357165 -4.262968 0.205553 -28.186123 -23.159904 -15.364043 179.562449 -57.427889 -179.152242 0.000000 0.000000 0.000000 -2.424069 -0.915212 0.343233 -1.562689 -8.683337 -15.721653 -0.242756 -1.144723 2.242767 -31.703443 37.547681 30.280008 178.945301 52.476453 -178.558958 0.000000 0.000000 0.000000 
-1.294765 99.545555 46.943958 0.000000 0.000000 0.000000 10.213023 -4.361914 0.952300 -24.894747 9.329004 14.463989 18.255608 9.653351 1.468657 -3.097722 -5.564116 -11.963250 3.339363 0.531724 0.069648 0.000000 0.000000 0.000000 10.912262 -3.005470 0.806090 -29.060129 -2.509186 -5.728259 18.859583 -0.765650 -5.231011 -0.418953 -9.043546 7.421664 2.418639 -0.551613 -1.006785 0.000000 0.000000 0.000000 10.682014 -2.990635 0.655602 5.876230 -0.407132 -0.510396 -1.330492 -0.672565 0.195235 1.059608 1.303023 -0.054408 0.000000 0.000000 0.000000 -1.650303 -1.145684 0.357826 10.796242 -0.095771 0.880957 -23.866117 1.073854 -4.666183 0.000000 0.000000 0.000000 -2.338969 -0.923683 0.344331 4.971691 -5.037024 17.269734 -0.914068 -4.491054 0.447305 -26.436324 -25.062816 -16.223147 179.569143 -56.486689 -179.167514 0.000000 0.000000 0.000000 -2.511624 -0.942606 0.311955 -1.637434 -8.782797 -15.536331 -0.662653 -0.914428 2.240067 -30.181940 36.442580 30.833523 179.126806 52.114313 -178.815514 0.000000 0.000000 0.000000 
